# xmcd
# 
# Track frame offsets:
#     150
#     31663
#     60151
#     88774
#     119361
#     145988
#     171817
# 
# Disc length: 2835
# 
# Revision: 1
# Processed by: cddbd v1.5.2PL0 Copyright (c) Steve Scherf et al.
# Submitted via: BonkEnc v1.0.8
# 
DISCID=520b1107
DTITLE=Klemens Marktl - Ocean Avenue
DYEAR=2004
DGENRE=Contemporary Jazz
TTITLE0=Anthratx
TTITLE1=Last Hope
TTITLE2=Ocean Avenue
TTITLE3=The Unexpected Happened
TTITLE4=4.15 A.M.
TTITLE5=Fat Cat
TTITLE6=Lakeside
EXTD=YEAR: 2005
EXTT0=
EXTT1=
EXTT2=
EXTT3=
EXTT4=
EXTT5=
EXTT6=
PLAYORDER=
